ply
format ascii 1.0
element vertex 631
property float32 x
property float32 y
property float32 z
property uchar red
property uchar green
property uchar blue
end_header
-0.9983308911323547 -0.28723427653312683 0.9885225892066956 255 140 73
-0.9982079267501831 0.2899380326271057 0.9886083602905273 200 200 200
-0.9982215762138367 -0.2867715656757355 -0.9908462166786194 255 140 73
-0.9983872771263123 0.29025372862815857 -0.9907113909721375 200 200 200
0.998278796672821 -0.2866608798503876 0.9886329174041748 200 200 200
0.9981130957603455 0.29036444425582886 0.9887678027153015 200 200 200
0.9982224106788635 0.2908271253108978 -0.9906010031700134 255 140 73
-0.9982076287269592 -0.28708767890930176 -0.8670904636383057 255 140 73
-0.9982349872589111 -0.28682941198349 -0.7434253096580505 255 140 73
-0.9982076287269592 -0.2870868444442749 0.24555718898773193 255 140 73
-0.9983515739440918 -0.21510611474514008 0.988539457321167 255 140 73
-0.9983620047569275 -0.1790420264005661 0.9885479211807251 200 200 200
-0.9982070326805115 -0.14352849125862122 0.9915467500686646 200 200 200
-0.9982079267501831 -0.1103372797369957 0.9886083602905273 200 200 200
-0.9983929991722107 -0.07084978371858597 0.9885731339454651 200 200 200
-0.9982099533081055 -0.03533631190657616 0.9916689991950989 200 200 200
-0.9982079267501831 -0.008070829324424267 0.9886083602905273 200 200 200
-0.998207151889801 0.03656153753399849 0.9886083602905273 200 200 200
-0.9982079863548279 0.08059341460466385 0.9886083602905273 200 200 200
-0.9982079863548279 0.10463627427816391 0.9886083602905273 200 200 200
-0.9978669881820679 0.15271148085594177 0.9883396029472351 200 200 200
-0.9904226660728455 0.21085618436336517 0.9818382263183594 200 200 200
-0.9982078075408936 0.28994083404541016 0.865178644657135 255 140 73
-0.9982081651687622 0.28991416096687317 -0.47637230157852173 255 140 73
-0.9982078075408936 0.2899503707885742 -0.6090865731239319 255 140 73
-0.9983938932418823 0.2902248203754425 -0.8670008778572083 255 140 73
-0.9983611702919006 0.20009352266788483 -0.9907324314117432 200 200 200
-0.9983459115028381 0.14599739015102386 -0.9907450675964355 200 200 200
-0.9983300566673279 0.09190128743648529 -0.9907577633857727 200 200 200
-0.9983144998550415 0.037805162370204926 -0.9907703399658203 200 200 200
-0.9982008934020996 -0.01253005675971508 -0.9894565939903259 200 200 200
-0.9982061982154846 -0.05276961624622345 -0.9820631742477417 200 200 200
-0.9981539249420166 -0.1036655455827713 -0.9907475709915161 255 140 73
-0.9997192025184631 -0.16565637290477753 -0.9826028347015381 255 140 73
-0.9982420206069946 -0.21464340388774872 -0.990829348564148 255 140 73
0.4992355406284332 -0.28634151816368103 -0.9907634258270264 255 140 73
0.37444746494293213 -0.2863773703575134 -0.9907703399658203 200 200 200
0.24965940415859222 -0.28641319274902344 -0.9907772541046143 200 200 200
0.12487134337425232 -0.28644904494285583 -0.9907841682434082 255 140 73
-0.8735992908477783 0.29028958082199097 -0.9907044172286987 255 140 73
0.24949367344379425 0.2906121015548706 -0.9906423687934875 255 140 73
0.37428173422813416 0.290647953748703 -0.9906355142593384 255 140 73
0.6238582134246826 0.2907196283340454 -0.9906216859817505 255 140 73
0.7486459612846375 0.2907554507255554 -0.9906147718429565 200 200 200
0.87343430519104 0.2907913029193878 -0.9906078577041626 255 140 73
0.9982430934906006 0.21869896352291107 -0.9906178116798401 255 140 73
0.9982531666755676 0.1826348900794983 -0.9906262755393982 255 140 73
0.9982854127883911 -0.2866319417953491 0.8649224638938904 200 200 200
0.9984018802642822 -0.28708794713020325 0.7417866587638855 200 200 200
0.9982990622520447 -0.286574125289917 0.6175011992454529 200 200 200
0.9983062148094177 -0.28654518723487854 0.49379074573516846 200 200 200
0.9984018802642822 -0.2870872914791107 0.36971351504325867 200 200 200
0.9983198046684265 -0.2864873707294464 0.24636979401111603 200 200 200
0.9983265995979309 -0.28645843267440796 0.12265902757644653 200 200 200
0.9984018802642822 -0.2870871424674988 -0.0007320409058593214 200 200 200
0.9983403086662292 -0.28640061616897583 -0.12476193159818649 200 200 200
0.9983471035957336 -0.2863716781139374 -0.2484726905822754 200 200 200
0.9983540177345276 -0.2863427698612213 -0.3721832036972046 200 200 200
0.998401939868927 -0.2870854437351227 -0.49294960498809814 255 140 73
0.9982152581214905 0.29079821705818176 -0.8668904900550842 200 200 200
0.9982087016105652 0.2907692790031433 -0.7431800365447998 200 200 200
0.9984015822410583 0.28993621468544006 -0.6226181983947754 200 200 200
0.9984018802642822 0.2899380326271057 -0.4938846528530121 200 200 200
0.9981881976127625 0.2906825542449951 -0.3720482885837555 200 200 200
0.9981814026832581 0.29065361618995667 -0.24833782017230988 200 200 200
0.9981746077537537 0.2906247079372406 -0.12462704628705978 200 200 200
0.9981678128242493 0.29059576988220215 -0.000916571356356144 255 140 73
0.9981265068054199 0.290422260761261 0.7413465976715088 255 140 73
0.9981198906898499 0.29039332270622253 0.8650573492050171 200 200 200
0.9981338381767273 0.21823625266551971 0.9887509346008301 200 200 200
0.9981439113616943 0.18217217922210693 0.9887425899505615 200 200 200
0.9984018802642822 0.1450326293706894 0.9886083602905273 200 200 200
0.9981648921966553 0.11004402488470078 0.9887256622314453 200 200 200
0.998180091381073 0.057074908167123795 0.988713264465332 200 200 200
0.9984018802642822 0.002524812240153551 0.9886083602905273 200 200 200
0.9983884692192078 -0.04078249633312225 0.9878353476524353 200 200 200
0.9976776838302612 -0.10084318369626999 0.9757561683654785 200 200 200
0.9982600808143616 -0.15254956483840942 0.9856093525886536 200 200 200
0.9982578158378601 -0.21453270316123962 0.9886497855186462 200 200 200
-0.49917832016944885 -0.287090927362442 0.9885501861572266 255 140 73
-0.37439021468162537 -0.287055104970932 0.9885570406913757 200 200 200
-0.24960215389728546 -0.2870192527770996 0.9885640144348145 200 200 200
-0.12481407821178436 -0.2869834303855896 0.9885708689689636 200 200 200
-2.6007683118223213e-05 -0.2869475781917572 0.9885777235031128 200 200 200
0.12476206570863724 -0.2869117558002472 0.9885846376419067 200 200 200
0.24955013394355774 -0.2868759036064148 0.9885915517807007 200 200 200
0.37433820962905884 -0.2868400812149048 0.9885984659194946 200 200 200
0.49912625551223755 -0.2868042290210724 0.9886053204536438 200 200 200
0.6239143013954163 -0.28676837682724 0.9886122941970825 200 200 200
0.7487027049064636 -0.28673255443573 0.9886191487312317 200 200 200
0.8734908103942871 -0.2866967022418976 0.9886260628700256 200 200 200
0.8733251094818115 0.29032859206199646 0.9887609481811523 200 200 200
0.748537003993988 0.29029273986816406 0.9887540340423584 255 140 73
0.12459634244441986 0.29011353850364685 0.9887195229530334 255 140 73
-0.00019173187320120633 0.29007771611213684 0.9887126684188843 200 200 200
-0.12497980147600174 0.29004186391830444 0.9887057542800903 255 140 73
-0.871793806552887 0.28992345929145813 0.988608717918396 255 140 73
-0.9982050061225891 -0.19188065826892853 0.8640363216400146 255 140 73
-0.9982079863548279 -0.08801532536745071 0.8596837520599365 200 200 200
-0.9982098340988159 -0.011518338695168495 0.877695620059967 200 200 200
-0.9982134699821472 0.119684137403965 0.8594452738761902 200 200 200
-0.9970565438270569 0.21612827479839325 0.8720529675483704 255 140 73
-0.9982077479362488 -0.12721827626228333 0.7326982617378235 255 140 73
-0.9982084035873413 -0.04629601910710335 0.7504414916038513 255 140 73
-0.9982118606567383 0.08278590440750122 0.7441398501396179 255 140 73
-0.9981411695480347 0.17308469116687775 0.7411002516746521 255 140 73
-0.9983633160591125 0.16450123488903046 -0.7694809436798096 255 140 73
-0.9983800053596497 0.2180677354335785 -0.7433069944381714 255 140 73
-0.9982205629348755 -0.21125274896621704 -0.8715848922729492 255 140 73
-0.9982837438583374 -0.09464836120605469 -0.8593589663505554 255 140 73
-0.9983058571815491 -0.01685330644249916 -0.86687171459198 255 140 73
-0.998334527015686 0.08341968059539795 -0.8663243651390076 255 140 73
-0.9983645081520081 0.1904878467321396 -0.8788636326789856 200 200 200
-0.8730039596557617 -0.08538098633289337 -0.989704966545105 255 140 73
-0.877443253993988 -0.009497223421931267 -0.989755392074585 200 200 200
-0.8815351724624634 0.10163890570402145 -0.9908127188682556 200 200 200
-0.8803368806838989 0.20055004954338074 -0.9907258152961731 255 140 73
-0.7570143938064575 -0.013122780248522758 -0.9906415343284607 255 140 73
-0.7483355402946472 0.06127144768834114 -0.9908302426338196 255 140 73
-0.7456977963447571 0.19141420722007751 -0.9907205104827881 255 140 73
-0.6318772435188293 0.08155997842550278 -0.9907404184341431 255 140 73
-0.1336902529001236 -0.12885470688343048 -0.9907615780830383 255 140 73
-0.11697287857532501 -0.05210193246603012 -0.9907427430152893 255 140 73
-0.0011831276351585984 -0.2063698172569275 -0.9907723665237427 255 140 73
0.003281885990872979 -0.11893218010663986 -0.9907516837120056 200 200 200
-0.009995787404477596 0.013858444057404995 -0.9907214045524597 255 140 73
0.10901563614606857 -0.20268478989601135 -0.9907654523849487 200 200 200
0.12490874528884888 -0.09845088422298431 -0.990740180015564 200 200 200
0.11906407028436661 0.021595390513539314 -0.9907124638557434 255 140 73
0.12427594512701035 0.08940618485212326 -0.9906963109970093 255 140 73
0.11066565662622452 0.16779938340187073 -0.9906787872314453 255 140 73
0.24962833523750305 -0.1782209426164627 -0.9907519817352295 200 200 200
0.23402267694473267 -0.09366940706968307 -0.9907330274581909 200 200 200
0.24958689510822296 -0.0339646153151989 -0.9907182455062866 200 200 200
0.2495175004005432 0.04860591143369675 -0.9906989336013794 200 200 200
0.24041417241096497 0.15874743461608887 -0.9906736612319946 200 200 200
0.3744138181209564 -0.169169083237648 -0.9907429218292236 200 200 200
0.37268784642219543 -0.09053878486156464 -0.9907246232032776 200 200 200
0.370451956987381 0.017616156488656998 -0.9906995296478271 200 200 200
0.3743438720703125 0.07426346093416214 -0.9906860589981079 200 200 200
0.3743205964565277 0.1554076373577118 -0.9906671047210693 200 200 200
0.49789920449256897 -0.1580187827348709 -0.9907335042953491 200 200 200
0.4991793632507324 -0.09024306386709213 -0.9907176494598389 200 200 200
0.4945169687271118 0.013736511580646038 -0.9906935691833496 200 200 200
0.4913182556629181 0.12451910972595215 -0.9906678199768066 200 200 200
0.4991008937358856 0.18249154090881348 -0.9906538724899292 255 140 73
0.6240032315254211 -0.21417751908302307 -0.9907397031784058 255 140 73
0.6127323508262634 -0.13356252014636993 -0.9907214641571045 255 140 73
0.6167373657226562 -0.05587280914187431 -0.9907031059265137 255 140 73
0.6164973378181458 0.01674559712409973 -0.9906861186027527 200 200 200
0.6078261137008667 0.10239993035793304 -0.9906665682792664 255 140 73
0.6238948106765747 0.1633683294057846 -0.9906514883041382 255 140 73
0.738866925239563 -0.008047016337513924 -0.9906851649284363 255 140 73
0.7325965762138367 0.16459259390830994 -0.9906451106071472 255 140 73
0.9982402324676514 0.20267482101917267 -0.8581861853599548 255 140 73
0.9982642531394958 0.097246453166008 -0.7417791485786438 255 140 73
0.998237133026123 0.19046516716480255 -0.7393372654914856 200 200 200
0.9982706308364868 0.048230160027742386 -0.6030665636062622 255 140 73
0.998238742351532 0.1621888130903244 -0.6207109093666077 200 200 200
0.9984018802642822 -0.20638079941272736 -0.4895530641078949 255 140 73
0.9984018206596375 -0.13657264411449432 -0.5004951357841492 255 140 73
0.998294472694397 -0.0535489022731781 -0.5116296410560608 255 140 73
0.9982649087905884 0.04727891460061073 -0.4958156943321228 255 140 73
0.9984018206596375 0.13846570253372192 -0.4773824214935303 200 200 200
0.9984018802642822 0.21714940667152405 -0.49511492252349854 200 200 200
0.9983274936676025 -0.19844050705432892 -0.3552490770816803 200 200 200
0.9982995986938477 -0.0948851928114891 -0.38653478026390076 200 200 200
0.9982786774635315 -0.02226518839597702 -0.3823103904724121 200 200 200
0.9982460737228394 0.08815984427928925 -0.3689485192298889 200 200 200
0.9982227087020874 0.16884978115558624 -0.3613585829734802 200 200 200
0.9983230233192444 -0.20522929728031158 -0.24072179198265076 200 200 200
0.9983057379722595 -0.14211533963680267 -0.2484389692544937 200 200 200
0.9982892274856567 -0.08576521277427673 -0.24842578172683716 200 200 200
0.9982704520225525 -0.018963174894452095 -0.24920053780078888 200 200 200
0.9982399344444275 0.0857168510556221 -0.24632632732391357 200 200 200
0.9982175827026367 0.16323888301849365 -0.2406356781721115 200 200 200
0.9983196258544922 -0.21427243947982788 -0.12474507093429565 200 200 200
0.9982934594154358 -0.12444967031478882 -0.12035511434078217 200 200 200
0.9982644319534302 -0.023697003722190857 -0.12093336135149002 200 200 200
0.9982470870018005 0.03817613422870636 -0.12468605488538742 200 200 200
0.9984018802642822 0.12092617154121399 -0.13968339562416077 200 200 200
0.9981999397277832 0.2040877491235733 -0.13485582172870636 200 200 200
0.9984017610549927 -0.21305710077285767 -0.011162669397890568 200 200 200
0.9982861876487732 -0.1198255717754364 -0.013244932517409325 200 200 200
0.9982531666755676 -0.007820951752364635 0.0012340269749984145 200 200 200
0.9982156753540039 0.12369293719530106 -0.0019938056357204914 200 200 200
0.9981985688209534 0.1824035346508026 -0.0009418613626621664 255 140 73
0.9983004927635193 -0.1953119933605194 0.12219709157943726 200 200 200
0.9982801079750061 -0.1251179724931717 0.12262550741434097 200 200 200
0.998250424861908 -0.022746697068214417 0.1271008551120758 200 200 200
0.998233437538147 0.03811829909682274 0.1227349042892456 200 200 200
0.998210608959198 0.11926428973674774 0.1150219589471817 200 200 200
0.9981920123100281 0.18237461149692535 0.12276861816644669 255 140 73
0.9982839822769165 -0.16013790667057037 0.23823148012161255 200 200 200
0.9982630610466003 -0.09109465777873993 0.2538736164569855 200 200 200
0.9982401132583618 -0.007892711088061333 0.23865269124507904 200 200 200
0.9982039928436279 0.12059866636991501 0.2260402888059616 255 140 73
0.9982920289039612 -0.21438811719417572 0.3700971305370331 200 200 200
0.9984018802642822 -0.1354905366897583 0.36370277404785156 200 200 200
0.9982508420944214 -0.07013178616762161 0.37013083696365356 200 200 200
0.9982272386550903 0.01273900456726551 0.3663748800754547 200 200 200
0.998203456401825 0.09498364478349686 0.3685917854309082 255 140 73
0.9984017610549927 -0.18519435822963715 0.4796183407306671 200 200 200
0.9982506632804871 -0.09168750792741776 0.48495200276374817 200 200 200
0.9982333779335022 -0.034096620976924896 0.4938497543334961 200 200 200
0.9982170462608337 0.02381475642323494 0.4939466118812561 200 200 200
0.9981911182403564 0.11409089714288712 0.4943600594997406 255 140 73
0.9982699155807495 -0.18578146398067474 0.6260860562324524 200 200 200
0.9982345104217529 -0.05892437696456909 0.6081046462059021 200 200 200
0.998212456703186 0.015564387664198875 0.6175336837768555 200 200 200
0.9981905817985535 0.09259194880723953 0.609917402267456 200 200 200
0.998170793056488 0.1611517369747162 0.6160283088684082 255 140 73
0.9982761740684509 -0.231325164437294 0.7498883008956909 200 200 200
0.9982483386993408 -0.13289287686347961 0.7408347725868225 200 200 200
0.9982261061668396 -0.052657634019851685 0.7243486046791077 200 200 200
0.9981958866119385 0.049794282764196396 0.7390463352203369 200 200 200
0.998178243637085 0.1101018637418747 0.7413043975830078 200 200 200
0.998161792755127 0.1679752916097641 0.7409557700157166 255 140 73
0.998241662979126 -0.13145558536052704 0.8555355072021484 200 200 200
0.9982144832611084 -0.04012097418308258 0.8693443536758423 200 200 200
0.9981851577758789 0.061822470277547836 0.8679033517837524 200 200 200
0.9981562495231628 0.16540491580963135 0.856103241443634 200 200 200
0.8812557458877563 -0.16709110140800476 0.9876879453659058 200 200 200
0.8756032586097717 -0.08576632291078568 0.9891161918640137 200 200 200
0.8734052777290344 0.01095523126423359 0.9886956214904785 200 200 200
0.8738610148429871 0.1214892566204071 0.988721489906311 200 200 200
0.8723148107528687 0.20098698139190674 0.9887399673461914 200 200 200
0.7486713528633118 -0.17854030430316925 0.9886444211006165 200 200 200
0.7514738440513611 -0.09913673251867294 0.9886986017227173 200 200 200
0.7559258341789246 -0.01091900747269392 0.9886818528175354 200 200 200
0.7485656142234802 0.08417981117963791 0.9887058138847351 200 200 200
0.7445062398910522 0.18909139931201935 0.9887301325798035 255 140 73
0.6082090735435486 -0.19668196141719818 0.9886218905448914 200 200 200
0.6214476823806763 -0.09822963923215866 0.9886674880981445 200 200 200
0.6238360404968262 -0.013752429746091366 0.9886760711669922 200 200 200
0.6284435987472534 0.08338727056980133 0.9886990189552307 200 200 200
0.6311366558074951 0.16765058040618896 0.9887189269065857 255 140 73
0.4991004168987274 -0.19664402306079865 0.9886264204978943 200 200 200
0.5061675310134888 -0.11530665308237076 0.9886472821235657 200 200 200
0.4990537762641907 -0.03435565158724785 0.9886643290519714 200 200 200
0.48853132128715515 0.05381450429558754 0.988684356212616 255 140 73
0.4980328679084778 0.12576207518577576 0.9887017011642456 255 140 73
0.36114171147346497 -0.164141446352005 0.9886263608932495 200 200 200
0.38720089197158813 -0.08141201734542847 0.9886473417282104 200 200 200
0.3743123412132263 0.045526523143053055 0.988676130771637 255 140 73
0.24172693490982056 -0.20347994565963745 0.9886106252670288 200 200 200
0.24950869381427765 -0.1426195651292801 0.9886252880096436 200 200 200
0.2499648630619049 -0.0602249838411808 0.988644540309906 200 200 200
0.25819894671440125 0.02111818641424179 0.9886640310287476 200 200 200
0.2493031919002533 0.09555429965257645 0.988680899143219 255 140 73
0.12474135309457779 -0.21478357911109924 0.988601565361023 200 200 200
0.12100878357887268 -0.13015106320381165 0.9886210560798645 200 200 200
0.11683426797389984 -0.051511336117982864 0.988639235496521 200 200 200
0.13247327506542206 0.019635194912552834 0.9886566996574402 200 200 200
0.1255737990140915 0.11551153659820557 0.9886788129806519 255 140 73
0.11628052592277527 0.19800719618797302 0.9886975884437561 255 140 73
-0.004644472151994705 -0.17075781524181366 0.9886046648025513 200 200 200
-0.007383519783616066 -0.09185080975294113 0.9886229634284973 200 200 200
0.00988626480102539 0.013309026136994362 0.988648533821106 200 200 200
0.0005299911135807633 0.09013340622186661 0.9886659383773804 200 200 200
-0.00796185526996851 0.18864525854587555 0.9886884689331055 200 200 200
-0.11760957539081573 -0.19179336726665497 0.9885935187339783 200 200 200
-0.12495970726013184 -0.09898146986961365 0.9886147975921631 200 200 200
-0.1191830113530159 0.021017439663410187 0.9886431694030762 200 200 200
-0.12443460524082184 0.08901295810937881 0.9886587858200073 200 200 200
-0.11086081713438034 0.1906980276107788 0.98868328332901 255 140 73
-0.25749102234840393 -0.1982821375131607 0.9885842800140381 200 200 200
-0.23407594859600067 -0.09511104971170425 0.9886096715927124 200 200 200
-0.24967466294765472 -0.03457067906856537 0.9886229634284973 200 200 200
-0.2496526837348938 0.04801308736205101 0.9886422753334045 200 200 200
-0.24061182141304016 0.1603422909975052 0.9886690378189087 255 140 73
-0.3744141757488251 -0.2036568969488144 0.9885765910148621 200 200 200
-0.36786842346191406 -0.09531524032354355 0.9886022210121155 200 200 200
-0.3705693483352661 0.01694313995540142 0.9886283874511719 255 140 73
-0.374493807554245 0.07358573377132416 0.9886413812637329 255 140 73
-0.48360675573349 -0.19326350092887878 0.9885729551315308 255 140 73
-0.506346583366394 -0.11844561994075775 0.9885891675949097 255 140 73
-0.4946320950984955 0.012990223243832588 0.9886205792427063 200 200 200
-0.4914970397949219 0.12387984246015549 0.9886466860771179 255 140 73
-0.6117876768112183 -0.1352749466896057 0.9885794520378113 255 140 73
-0.616812527179718 -0.05668981373310089 0.988597571849823 200 200 200
-0.6161876320838928 0.01605663076043129 0.988614559173584 200 200 200
-0.607504665851593 0.1014825627207756 0.9886350631713867 255 140 73
-0.6240953207015991 0.16085673868656158 0.988647997379303 255 140 73
-0.7372315526008606 -0.15001589059829712 0.9885690808296204 255 140 73
-0.7630160450935364 -0.05582289397716522 0.9885896444320679 200 200 200
-0.7493305206298828 0.02050895057618618 0.9886083006858826 200 200 200
-0.7566615343093872 0.0883031040430069 0.9886236786842346 200 200 200
-0.7327985763549805 0.16461814939975739 0.9886428713798523 255 140 73
-0.8657836318016052 -0.1474478840827942 0.9885625243186951 200 200 200
-0.8779695630073547 -0.04242882505059242 0.9885864853858948 200 200 200
-0.8838802576065063 0.0650184154510498 0.9886112213134766 200 200 200
-0.8622543215751648 0.18719550967216492 0.9877952933311462 255 140 73
-0.00023782975040376186 -0.28710082173347473 -0.8686914443969727 255 140 73
0.1281285583972931 -0.2872307002544403 -0.8808305263519287 200 200 200
0.24935011565685272 -0.2871030569076538 -0.8688262701034546 200 200 200
0.3744378387928009 -0.2870860695838928 -0.866911768913269 200 200 200
0.50038081407547 -0.28720149397850037 -0.8785799741744995 200 200 200
0.6251088380813599 -0.2870948314666748 -0.8679696321487427 255 140 73
0.015370561741292477 -0.28708961606025696 -0.7419735789299011 200 200 200
0.1253056526184082 -0.28709033131599426 -0.7404680252075195 200 200 200
0.23852668702602386 -0.2870888113975525 -0.7409409880638123 200 200 200
0.37622615694999695 -0.28708067536354065 -0.7605867385864258 200 200 200
0.49712780117988586 -0.2870957851409912 -0.7233347296714783 200 200 200
0.6351418495178223 -0.28708434104919434 -0.7432484030723572 200 200 200
0.7297848463058472 -0.287081241607666 -0.7463052272796631 255 140 73
-0.13336047530174255 -0.2870872914791107 -0.6195845007896423 255 140 73
0.005796045996248722 -0.2870872914791107 -0.6350787878036499 200 200 200
0.12640656530857086 -0.2870872914791107 -0.6155491471290588 200 200 200
0.262302041053772 -0.2870872914791107 -0.6199683547019958 200 200 200
0.3568941354751587 -0.2870872914791107 -0.617275595664978 200 200 200
0.49901270866394043 -0.2870872914791107 -0.6174288988113403 200 200 200
0.6221923232078552 -0.28708744049072266 -0.6396745443344116 200 200 200
0.7607845664024353 -0.2870783805847168 -0.6075974106788635 200 200 200
0.8734597563743591 -0.2870860695838928 -0.6194698810577393 255 140 73
-0.7308272123336792 -0.2870872914791107 -0.4790433943271637 255 140 73
-0.39282935857772827 -0.2870872914791107 -0.4898959994316101 255 140 73
-0.25131577253341675 -0.2870872914791107 -0.4951699674129486 255 140 73
-0.1217016875743866 -0.2870872914791107 -0.49597257375717163 200 200 200
0.02117978036403656 -0.2870872914791107 -0.493808388710022 200 200 200
0.12671348452568054 -0.2870872914791107 -0.48074162006378174 200 200 200
0.23655782639980316 -0.2870872914791107 -0.508712649345398 200 200 200
0.3768467605113983 -0.2870872914791107 -0.4957519471645355 200 200 200
0.5002912878990173 -0.2870872914791107 -0.49815988540649414 200 200 200
0.6392781734466553 -0.2870872914791107 -0.4823002219200134 200 200 200
0.7487461566925049 -0.2870873510837555 -0.49583956599235535 200 200 200
0.8733898401260376 -0.28705736994743347 -0.508737325668335 200 200 200
-0.7464945912361145 -0.2870882451534271 -0.37150105834007263 255 140 73
-0.6195471286773682 -0.2870872914791107 -0.37114840745925903 255 140 73
-0.4949295222759247 -0.2870872914791107 -0.3867008090019226 255 140 73
-0.3735660910606384 -0.2870872914791107 -0.3667370080947876 200 200 200
-0.2514500617980957 -0.2870872914791107 -0.37157052755355835 200 200 200
-0.110354483127594 -0.2870872914791107 -0.37142452597618103 200 200 200
-0.011243791319429874 -0.2870872914791107 -0.35511431097984314 200 200 200
0.14086593687534332 -0.2870872914791107 -0.3819674551486969 200 200 200
0.250195175409317 -0.2870872914791107 -0.35765722393989563 200 200 200
0.3604438006877899 -0.2870872914791107 -0.3593733608722687 200 200 200
0.5148978233337402 -0.2870872914791107 -0.3842121660709381 200 200 200
0.6221970915794373 -0.2870872914791107 -0.3705293536186218 200 200 200
0.7343943119049072 -0.2870873510837555 -0.38613206148147583 200 200 200
0.8918402791023254 -0.2871808111667633 -0.35762155055999756 200 200 200
-0.6234170198440552 -0.2870872914791107 -0.2586109936237335 255 140 73
-0.5151951909065247 -0.2870872914791107 -0.23263958096504211 255 140 73
-0.3765352964401245 -0.2870872914791107 -0.24736298620700836 255 140 73
-0.23897795379161835 -0.2870872914791107 -0.24661095440387726 255 140 73
-0.1353263109922409 -0.2870872914791107 -0.2469964623451233 200 200 200
0.0036856853403151035 -0.2870872914791107 -0.2648082673549652 200 200 200
0.12255144864320755 -0.2870872914791107 -0.24344292283058167 200 200 200
0.24531589448451996 -0.2870872914791107 -0.2467500865459442 255 140 73
0.3751122057437897 -0.2870872914791107 -0.2459326535463333 255 140 73
0.5011423826217651 -0.2870872914791107 -0.24568238854408264 200 200 200
0.623619556427002 -0.2870869040489197 -0.26209938526153564 200 200 200
0.7634601593017578 -0.2870766818523407 -0.23504914343357086 200 200 200
0.8750506043434143 -0.28709954023361206 -0.24991777539253235 200 200 200
-0.12207214534282684 -0.2870872914791107 -0.12337347865104675 255 140 73
0.001958985812962055 -0.2870872914791107 -0.10755039006471634 255 140 73
0.12162887305021286 -0.2870872914791107 -0.12555091083049774 255 140 73
0.4807591438293457 -0.2870872914791107 -0.12387583404779434 255 140 73
0.6404309868812561 -0.2870873510837555 -0.12114247679710388 200 200 200
0.748692512512207 -0.2870873808860779 -0.12453252822160721 200 200 200
0.87564617395401 -0.28710654377937317 -0.128616064786911 200 200 200
0.6078076362609863 -0.2870872914791107 0.014262540265917778 255 140 73
0.7453708648681641 -0.2870866656303406 -0.01661001332104206 200 200 200
0.8862450122833252 -0.28720250725746155 -0.0009294579504057765 200 200 200
-0.884684145450592 -0.2871862053871155 0.123443104326725 255 140 73
0.6241284012794495 -0.2870872914791107 0.10443331301212311 255 140 73
0.7469140291213989 -0.2870846092700958 0.1420591175556183 200 200 200
0.8864036798477173 -0.2872089445590973 0.1248997375369072 200 200 200
0.6389556527137756 -0.2870872914791107 0.2594399154186249 255 140 73
0.7497095465660095 -0.2870873510837555 0.24729669094085693 200 200 200
0.8742826581001282 -0.28709307312965393 0.24683673679828644 200 200 200
-0.11080872267484665 -0.2870872914791107 0.3839137554168701 255 140 73
0.6238800883293152 -0.2870872914791107 0.3700810670852661 255 140 73
0.7355992794036865 -0.2870872914791107 0.3574165999889374 200 200 200
0.8860346674919128 -0.28720909357070923 0.37040507793426514 200 200 200
-0.12725003063678741 -0.2870872914791107 0.4939693808555603 255 140 73
0.6130185723304749 -0.2870873510837555 0.47979554533958435 255 140 73
0.749618411064148 -0.2870872914791107 0.5134598016738892 200 200 200
0.887293815612793 -0.2872155010700226 0.493038147687912 200 200 200
-0.123397596180439 -0.2870872914791107 0.6166738867759705 255 140 73
-0.01918196678161621 -0.28708750009536743 0.6173226833343506 255 140 73
0.5022191405296326 -0.28708741068840027 0.6367095708847046 255 140 73
0.6420851349830627 -0.287087619304657 0.6192131042480469 200 200 200
0.7488642334938049 -0.2870872914791107 0.6174011826515198 200 200 200
0.8734042644500732 -0.28708615899086 0.6155442595481873 200 200 200
-0.2472662776708603 -0.2870873510837555 0.7430284023284912 255 140 73
-0.13757437467575073 -0.2870948314666748 0.730110228061676 200 200 200
0.01441488228738308 -0.28708115220069885 0.754654586315155 200 200 200
0.12695392966270447 -0.2870846688747406 0.7517412304878235 200 200 200
0.23566532135009766 -0.2870872914791107 0.7282946109771729 255 140 73
0.38926640152931213 -0.2870925962924957 0.7275587320327759 255 140 73
0.4846108853816986 -0.2870829999446869 0.740763247013092 200 200 200
0.6222076416015625 -0.2870842218399048 0.7582876682281494 200 200 200
0.7457281351089478 -0.28709331154823303 0.7251052260398865 200 200 200
0.8856323957443237 -0.2871979773044586 0.7424668073654175 200 200 200
-0.36336588859558105 -0.28705471754074097 0.8646974563598633 255 140 73
-0.2596462368965149 -0.28707781434059143 0.8672481179237366 200 200 200
-0.12516434490680695 -0.287239670753479 0.8863517642021179 200 200 200
0.012577547691762447 -0.287080317735672 0.8667775988578796 200 200 200
0.12636339664459229 -0.28708475828170776 0.864611029624939 200 200 200
0.25064438581466675 -0.28721755743026733 0.878691554069519 200 200 200
0.35899269580841064 -0.2871815860271454 0.8815075755119324 200 200 200
0.5122559070587158 -0.2870549261569977 0.8648067116737366 200 200 200
0.622185230255127 -0.2870855927467346 0.8647569417953491 200 200 200
0.7484264969825745 -0.2872409522533417 0.8796932697296143 200 200 200
0.8717705011367798 -0.287069708108902 0.8646631836891174 200 200 200
0.8714931011199951 0.2899356186389923 -0.8688778877258301 200 200 200
0.7519499063491821 0.28994640707969666 -0.867875337600708 255 140 73
0.8858787417411804 0.2900559604167938 -0.74232017993927 200 200 200
0.8725544810295105 0.2899300158023834 -0.6185671091079712 255 140 73
0.8841609954833984 0.29003557562828064 -0.4963323175907135 200 200 200
0.885661244392395 0.29005271196365356 -0.3711654245853424 200 200 200
0.7450451850891113 0.28993988037109375 -0.37223145365715027 255 140 73
0.8880111575126648 0.29010218381881714 -0.24804243445396423 200 200 200
0.7383845448493958 0.28994718194007874 -0.24839986860752106 200 200 200
0.623449444770813 0.28993773460388184 -0.2589915990829468 255 140 73
0.5165054202079773 0.2899380326271057 -0.2343365103006363 255 140 73
0.23923635482788086 0.2899380326271057 -0.2465396225452423 255 140 73
0.13357557356357574 0.2899380326271057 -0.2474765181541443 255 140 73
0.8765146732330322 0.2899652421474457 -0.12775538861751556 200 200 200
0.7495640516281128 0.28993770480155945 -0.12380526214838028 255 140 73
0.641208827495575 0.2899380922317505 -0.12088628113269806 255 140 73
0.5014219880104065 0.2899380326271057 -0.14284566044807434 200 200 200
0.3764650523662567 0.2899380326271057 -0.10963808000087738 200 200 200
0.2499357908964157 0.2899380326271057 -0.12506310641765594 200 200 200
0.10745768249034882 0.2899380326271057 -0.13941772282123566 255 140 73
0.48014986515045166 0.2899380326271057 -0.0010884999064728618 255 140 73
0.37526735663414 0.2899380326271057 -4.572842954075895e-05 200 200 200
0.26369509100914 0.2899380326271057 -0.015711713582277298 200 200 200
0.10612791776657104 0.2899380326271057 0.00014158926205709577 200 200 200
0.0003334356297273189 0.2899380326271057 -0.00093117292271927 255 140 73
0.3780423700809479 0.2899380326271057 0.12265749275684357 255 140 73
0.23478838801383972 0.2899380326271057 0.1370440423488617 200 200 200
0.1386997401714325 0.2899380326271057 0.13821864128112793 200 200 200
0.001490490511059761 0.2899380326271057 0.10690965503454208 200 200 200
-0.12069430202245712 0.2899380326271057 0.10551293194293976 255 140 73
0.3795546293258667 0.2899380326271057 0.22470831871032715 255 140 73
0.2524876594543457 0.2899380326271057 0.24639806151390076 255 140 73
0.12140870094299316 0.2899380326271057 0.24570529162883759 200 200 200
0.00010135293268831447 0.2899380326271057 0.2465328723192215 200 200 200
0.12713223695755005 0.2899380326271057 0.3695870339870453 255 140 73
-0.01642296276986599 0.2899380326271057 0.3665679395198822 255 140 73
-0.015701323747634888 0.2899380326271057 0.4931834936141968 255 140 73
0.0200099665671587 0.28993821144104004 0.6162097454071045 255 140 73
-0.0139137739315629 0.2899332642555237 0.75493323802948 255 140 73
0.8876522779464722 0.2900311052799225 0.8640867471694946 255 140 73
0.0018858301918953657 0.28995269536972046 0.8666223883628845 200 200 200
-0.11280138045549393 0.28991881012916565 0.8661428689956665 255 140 73
0.5759597420692444 0.28993818163871765 -0.17201736569404602 200 200 200
0.562997043132782 -0.2870873510837555 -0.1852317601442337 200 200 200
0.9360148906707764 0.29219189286231995 -0.18664544820785522 200 200 200
0.9360148906707764 -0.28934118151664734 -0.18664544820785522 200 200 200
0.6864315867424011 -0.2893412709236145 0.9267565011978149 200 200 200
0.8112196326255798 0.29219192266464233 -0.9289124608039856 200 200 200
0.8112211227416992 0.2921919822692871 0.9124195575714111 255 140 73
0.8109744787216187 -0.2870872914791107 0.5403410792350769 200 200 200
0.8015400767326355 -0.2870872914791107 0.4329245984554291 200 200 200
0.5595804452896118 0.2899380326271057 -0.06144236400723457 255 140 73
0.5710643529891968 -0.2870872914791107 -0.5590354204177856 200 200 200
0.5479457378387451 -0.2870872914791107 -0.29477399587631226 200 200 200
0.560699462890625 -0.2870872914791107 -0.07282754778862 255 140 73
0.573184072971344 -0.2870875597000122 0.6776698231697083 200 200 200
0.5618895888328552 -0.2870872914791107 -0.6804792881011963 200 200 200
0.5616434812545776 -0.2870872914791107 0.7865478992462158 200 200 200
0.8109451532363892 -0.2870872914791107 0.325916051864624 200 200 200
0.6741976737976074 -0.2870872914791107 0.17238985002040863 255 140 73
-0.06288451701402664 0.2899380326271057 0.18259581923484802 255 140 73
0.05150793865323067 0.2899380326271057 0.18677963316440582 200 200 200
0.18726050853729248 0.2899380326271057 0.2009083330631256 200 200 200
0.5641613006591797 -0.2870872914791107 0.5678772926330566 255 140 73
0.426410049200058 0.2899380326271057 -0.18847665190696716 255 140 73
0.7965969443321228 -0.28708475828170776 0.7897657155990601 200 200 200
0.187020942568779 0.2899380326271057 -0.16913388669490814 200 200 200
-0.18686379492282867 -0.2870872914791107 -0.16926828026771545 255 140 73
-0.050719644874334335 -0.2870872914791107 -0.1841859221458435 200 200 200
0.061382368206977844 -0.2870872914791107 -0.18566575646400452 255 140 73
0.17405465245246887 -0.2870872914791107 -0.18432900309562683 255 140 73
0.45067763328552246 -0.2870872914791107 -0.20006033778190613 255 140 73
-0.06235671415925026 0.2899380326271057 0.6684169173240662 255 140 73
0.31356146931648254 -0.28708943724632263 0.7921292185783386 200 200 200
0.3122605085372925 0.2899380326271057 0.1858227252960205 200 200 200
0.3249405026435852 0.2899380326271057 -0.18594181537628174 255 140 73
0.3120932877063751 -0.2870872914791107 -0.18690341711044312 255 140 73
0.07530167698860168 -0.2870872914791107 -0.6666497588157654 200 200 200
0.20611149072647095 -0.2870872914791107 0.8030425310134888 200 200 200
0.062243007123470306 -0.2870872914791107 0.668323278427124 255 140 73
0.32491934299468994 -0.28708335757255554 -0.6951513886451721 200 200 200
-0.17450189590454102 -0.28713157773017883 0.8188512325286865 200 200 200
0.5487023591995239 -0.28708380460739136 -0.7901661396026611 200 200 200
0.9360149502754211 -0.28934118151664734 0.18449322879314423 200 200 200
0.6864360570907593 0.29205113649368286 -0.9289063811302185 255 140 73
0.06249448284506798 -0.2893412709236145 0.9267565011978149 200 200 200
-0.06257110089063644 -0.2891927659511566 0.9112218022346497 200 200 200
-0.43721359968185425 -0.2893337309360504 0.9102635979652405 255 140 73
0.06249552592635155 0.29205113649368286 0.9267542958259583 255 140 73
-0.062298838049173355 0.2920599579811096 0.9267545342445374 200 200 200
0.43659573793411255 -0.289334237575531 0.9115451574325562 200 200 200
0.8112199902534485 -0.28920039534568787 0.9267559051513672 200 200 200
-0.18661867082118988 -0.28920915722846985 0.9124199748039246 200 200 200
0.1872786432504654 -0.28920042514801025 0.9267558455467224 200 200 200
0.4368552565574646 -0.2893413007259369 -0.9289053082466125 200 200 200
0.18728260695934296 -0.28934118151664734 -0.9289124608039856 200 200 200
0.06249234452843666 -0.28920042514801025 -0.9289063811302185 255 140 73
0.3120657205581665 -0.2890683710575104 0.9267542362213135 200 200 200
0.7977683544158936 0.2899380326271057 -0.5441457033157349 255 140 73
-0.311873197555542 -0.289067804813385 0.9267555475234985 200 200 200
0.8109927177429199 0.2899375855922699 -0.43301308155059814 255 140 73
0.6993266940116882 -0.2870872914791107 0.4459800124168396 200 200 200
0.9360148310661316 -0.2893412113189697 -0.5577735304832458 255 140 73
0.5616446733474731 -0.2890683710575104 -0.9289064407348633 255 140 73
0.31206703186035156 -0.2890595495700836 -0.9289076328277588 200 200 200
0.7981508374214172 -0.2870872914791107 -0.3211745023727417 200 200 200
0.4485805332660675 -0.2870872914791107 -0.31075406074523926 200 200 200
-0.43574169278144836 -0.2870872914791107 -0.30876538157463074 200 200 200
-0.5462515950202942 -0.2870872914791107 -0.322828084230423 200 200 200
0.8250876069068909 -0.2871449589729309 -0.4225989580154419 200 200 200
0.5621634721755981 -0.2870872914791107 -0.4505578577518463 200 200 200
0.4257313311100006 -0.2870872914791107 -0.4343487620353699 200 200 200
-0.4236248731613159 -0.2870872914791107 -0.4190126359462738 255 140 73
-0.5609194040298462 -0.2870872914791107 -0.4177759885787964 255 140 73
-0.6860390901565552 -0.2870872914791107 -0.41881683468818665 255 140 73
0.6744555830955505 -0.2870875597000122 -0.5715823769569397 200 200 200
0.4253782629966736 -0.2870872914791107 -0.556585431098938 200 200 200
-0.7970198392868042 -0.2870872914791107 -0.5431445240974426 255 140 73
0.5616447925567627 -0.2890595495700836 0.9267544746398926 200 200 200
-0.049462225288152695 -0.2870872914791107 0.5420668125152588 255 140 73
0.1748325079679489 -0.2870872914791107 -0.2949272394180298 200 200 200
0.32369065284729004 0.2899380326271057 0.30772605538368225 255 140 73
0.18747730553150177 0.2899380326271057 0.30707332491874695 255 140 73
-0.04801212251186371 0.2899380326271057 0.2955499589443207 255 140 73
0.17506670951843262 0.2899380326271057 -0.06389084458351135 200 200 200
0.449722021818161 0.2899380326271057 -0.07772734761238098 200 200 200
0.7994466423988342 -0.2870872914791107 0.0610845610499382 200 200 200
0.6964329481124878 -0.2870872914791107 0.06165242940187454 200 200 200
0.6719784140586853 -0.2870872914791107 -0.04765772446990013 200 200 200
-0.062132179737091064 -0.2870872914791107 -0.06218633055686951 255 140 73
0.05192289873957634 0.2899380326271057 0.4303099811077118 255 140 73
-0.044693272560834885 0.2899380326271057 0.4316754937171936 255 140 73
0.6711771488189697 0.2899380326271057 -0.05017348378896713 255 140 73
0.45153430104255676 0.2899380326271057 0.07371906191110611 255 140 73
0.049780964851379395 0.2899380326271057 0.5411729216575623 255 140 73
0.18804100155830383 0.2899380326271057 0.04994208738207817 200 200 200
0.050807494670152664 0.2899380326271057 0.30770549178123474 200 200 200
0.07376441359519958 -0.2870872914791107 -0.30917108058929443 200 200 200
-0.06202581897377968 -0.2870872914791107 -0.2929086983203888 200 200 200
-0.1871141791343689 -0.2870872914791107 -0.3268159329891205 200 200 200
-0.3235210180282593 -0.2870872914791107 -0.30951613187789917 200 200 200
0.07563302665948868 0.2899380326271057 0.07492374628782272 200 200 200
-0.062056947499513626 0.2899380326271057 0.07849492877721786 255 140 73
-0.18661850690841675 0.2899380326271057 0.07511956989765167 255 140 73
0.3140752911567688 -0.2870872914791107 -0.44484224915504456 200 200 200
0.20501117408275604 -0.2870872914791107 -0.43433594703674316 200 200 200
0.051148537546396255 -0.2870872914791107 -0.41828733682632446 200 200 200
-0.048280201852321625 -0.2870872914791107 -0.44750386476516724 200 200 200
-0.18713250756263733 -0.2870872914791107 -0.43431949615478516 200 200 200
-0.3233329951763153 -0.2870872914791107 -0.43189534544944763 200 200 200
0.3261660039424896 -0.2870872914791107 -0.5449480414390564 200 200 200
0.1738765686750412 -0.2870872914791107 -0.5706604719161987 200 200 200
0.06437622010707855 -0.2870872914791107 -0.5681710839271545 200 200 200
-0.048982687294483185 -0.2870872914791107 -0.5579407811164856 200 200 200
-0.18711426854133606 -0.2870872914791107 -0.5412474274635315 255 140 73
0.07809536904096603 0.2899380326271057 -0.06270214915275574 255 140 73
0.31154605746269226 -0.2870872914791107 -0.2938538193702698 200 200 200
0.07442749291658401 0.2898062467575073 0.7905800342559814 255 140 73
0.04901700094342232 0.2899433374404907 0.6924833059310913 255 140 73
0.29870837926864624 0.2899380326271057 0.07408451288938522 200 200 200
0.3125860095024109 0.2899380326271057 -0.07942133396863937 200 200 200
0.811248779296875 0.28993096947669983 -0.6976950764656067 255 140 73
0.6983526945114136 -0.2869468629360199 0.7898783683776855 200 200 200
0.4248533546924591 -0.28700506687164307 0.817087709903717 200 200 200
0.0624910369515419 -0.2869464159011841 0.8030425906181335 200 200 200
-0.07262660562992096 -0.2869580090045929 0.8052575588226318 200 200 200
0.8106997609138489 -0.2870872914791107 0.6958265900611877 200 200 200
0.17064066231250763 -0.2870872914791107 0.6788164973258972 255 140 73
-0.04880737140774727 -0.28709182143211365 0.6934801340103149 200 200 200
-0.1870851367712021 -0.2870868146419525 0.6793318390846252 255 140 73
0.7976034879684448 -0.28708750009536743 -0.6952165961265564 255 140 73
0.42669257521629333 -0.2870863676071167 -0.6806677579879761 200 200 200
0.9360011219978333 0.29430511593818665 0.9267590641975403 200 200 200
0.17521396279335022 -0.2870872914791107 -0.6672356128692627 200 200 200
-0.9358083009719849 0.29430511593818665 0.9267578125 255 140 73
-0.06190960481762886 -0.28708750009536743 -0.68132084608078 255 140 73
0.44948408007621765 -0.2869464159011841 -0.7902415990829468 200 200 200
0.17153793573379517 -0.28694021701812744 -0.8049700260162354 200 200 200
0.07907749712467194 -0.2869580090045929 -0.8051447868347168 200 200 200
-0.06184207648038864 -0.28697118163108826 -0.7888329029083252 255 140 73
0.8107538223266602 0.2897971570491791 -0.7889140248298645 255 140 73
-0.062297046184539795 0.28981366753578186 0.8030425906181335 255 140 73
-0.3118731677532196 -0.286972314119339 0.8030425310134888 255 140 73
0.3125871419906616 -0.2870872914791107 0.6958265900611877 255 140 73
0.31258711218833923 -0.28698164224624634 -0.7886999845504761 200 200 200
0.9204633831977844 -0.28920039534568787 -0.4333014488220215 200 200 200
0.936008870601654 0.2920511066913605 -0.3103477656841278 200 200 200
0.936008870601654 0.29205113649368286 -0.06293575465679169 255 140 73
0.9360088109970093 -0.2890683710575104 -0.3103507459163666 200 200 200
0.936008870601654 -0.28920039534568787 -0.06293575465679169 200 200 200
0.9360089898109436 -0.2890683710575104 0.060780543833971024 200 200 200
0.9360103011131287 -0.28920042514801025 0.30819982290267944 200 200 200
0.9360077977180481 -0.2892092168331146 0.4319077730178833 200 200 200
0.9360079169273376 0.2920599579811096 -0.4340633749961853 200 200 200
0.9360094666481018 0.29220083355903625 -0.8051964640617371 200 200 200
0.9360105395317078 0.2919190526008606 0.8030422329902649 255 140 73
0.9360096454620361 -0.2893413007259369 0.8030441999435425 200 200 200
0.8112062811851501 0.28979194164276123 -0.20321747660636902 200 200 200
0.6719663143157959 0.28994685411453247 -0.18617933988571167 200 200 200
0.7030698657035828 -0.28695523738861084 -0.8051946759223938 255 140 73
0.8112195730209351 -0.2869464159011841 -0.18664199113845825 200 200 200
0.6726683974266052 -0.2870960831642151 -0.19912734627723694 200 200 200
0.672532320022583 -0.2870919108390808 0.6940706372261047 200 200 200
-0.6740479469299316 -0.2870872914791107 -0.17043091356754303 255 140 73
0.43758270144462585 -0.2870961129665375 0.6638497114181519 255 140 73
0.9360073208808899 -0.29132238030433655 0.9267520308494568 200 200 200
-0.9358122944831848 0.2941642999649048 -0.9289053082466125 255 140 73
-0.9358066916465759 -0.29145437479019165 -0.9289108514785767 255 140 73
0.9360073804855347 0.2941637337207794 -0.9289034008979797 200 200 200
-0.6860045790672302 -0.2870872914791107 -0.32583174109458923 255 140 73
0.6859322190284729 0.28993749618530273 -0.3267926871776581 255 140 73
0.6864314675331116 -0.2870872914791107 0.3082004189491272 200 200 200
0.8112196922302246 -0.2869464159011841 -0.5577735900878906 200 200 200
0.6999498605728149 -0.28708702325820923 -0.2962266802787781 200 200 200
0.9360109567642212 0.29205939173698425 -0.5577735900878906 200 200 200
0.8113896250724792 0.2898150682449341 -0.31136468052864075 200 200 200
0.6864315867424011 -0.2870873510837555 -0.4340630769729614 200 200 200
0.9360108375549316 -0.28920865058898926 0.5556216835975647 200 200 200
0.6740110516548157 -0.28708675503730774 0.5428062677383423 200 200 200
0.8106997013092041 -0.2869464159011841 0.16799499094486237 200 200 200
0.8106997609138489 -0.2869640290737152 -0.04643658176064491 200 200 200
0.8112196922302246 0.2898147702217102 -0.06293130666017532 255 140 73
0.9360090494155884 0.2919180393218994 -0.68148273229599 200 200 200
0.9360088109970093 -0.2890678346157074 0.6793304681777954 200 200 200
0.6988514065742493 -0.2870955467224121 -0.6691458821296692 200 200 200
